<?xml version="1.0" encoding="utf-8"?>
<!-- Generator: Adobe Illustrator 16.0.0, SVG Export Plug-In . SVG Version: 6.00 Build 0)  -->
<!DOCTYPE svg PUBLIC "-//W3C//DTD SVG 1.1//EN" "http://www.w3.org/Graphics/SVG/1.1/DTD/svg11.dtd">
<svg version="1.1" id="Layer_1" xmlns="http://www.w3.org/2000/svg" xmlns:xlink="http://www.w3.org/1999/xlink" x="0px" y="0px"
	 width="960px" height="560px" viewBox="0 0 960 560" enable-background="new 0 0 960 560" xml:space="preserve">
<path fill="#00FFFF" d="M511.35,438.28c-2.72-0.05-5.409-0.16-8.09-0.34l-0.04-0.11C505.91,438.06,508.62,438.21,511.35,438.28z"/>
<path fill="#00FFFF" d="M528.95,437.66l-0.03,0.109c-3.39,0.28-6.82,0.461-10.26,0.53C522.12,438.21,525.56,438,528.95,437.66z"/>
<path fill="#00FFFF" d="M611.641,300.399c4.14-13.06,6.37-26.979,6.37-41.41c0-29.24-9.16-56.35-24.75-78.61h-0.011
	c-0.029-0.03-0.05-0.07-0.069-0.11c-6.19-8.8-13.391-16.85-21.431-23.97c6.62,7.78,12.25,16.43,16.69,25.75
	c-7.68,2.77-23.12,7.85-43.34,12.02c-6.29-10.64-15.2-19.55-25.84-25.84c3.229-15.87,7.029-28.88,9.899-37.62
	c0.65-1.99,1.261-3.76,1.79-5.29c1.48-4.17,2.45-6.57,2.58-6.89c-0.2,0.3-1.63,2.51-3.79,6.34c-0.81,1.46-1.74,3.14-2.74,5.05
	c-4.25,8.07-9.899,20.03-14.899,34.68c-9.19-4.15-19.391-6.46-30.13-6.46c-11.061,0-21.55,2.45-30.95,6.84
	c-5.43-15.44-11.5-27.7-15.64-35.28c-1.02-1.85-1.91-3.42-2.66-4.69c-1.33-2.28-2.19-3.6-2.34-3.83c0.09,0.24,0.68,1.68,1.6,4.17
	c0.49,1.35,1.08,3,1.74,4.94c2.81,8.23,6.92,21.59,10.44,38.35c-10.5,6.32-19.27,15.2-25.48,25.78
	c-20.67-4.2-36.49-9.37-44.38-12.21c5.12-10.76,11.82-20.62,19.81-29.29c-9.62,7.87-18.16,17.02-25.34,27.2
	c-15.75,22.33-25.01,49.57-25.01,78.97c0,13.16,1.86,25.9,5.32,37.95c-11.91-11.45-22.35-24.42-30.99-38.6
	c12.25,74.399,74.35,132.01,150.86,137.37l-0.04-0.11c2.69,0.229,5.4,0.38,8.13,0.45c-2.72-0.05-5.409-0.16-8.09-0.34l12.8,45.859
	l12.86-46.03c-3.39,0.28-6.82,0.461-10.26,0.53c3.46-0.09,6.899-0.3,10.29-0.64l-0.03,0.109c73.09-6.14,132.61-59.989,147.3-130.3
	C633.261,278.149,623.08,289.96,611.641,300.399z M545.141,231.37c0,9.73-2.181,18.959-6.07,27.22
	c-7.939-2.32-16.5-4.36-25.53-5.851c-0.529-7.05-0.83-14.34-0.83-21.8c0-7.06,0.271-13.98,0.75-20.68
	c9.08-1.56,17.671-3.66,25.631-6.05C542.971,212.45,545.141,221.66,545.141,231.37z M446.721,285.239
	c-7.29-4.67-13.56-10.779-18.43-17.92c6.7-1.2,13.83-2.25,21.29-3.09C448.82,271.569,447.83,278.6,446.721,285.239z M501.601,251.13
	c-6.17-0.65-12.51-1.011-18.98-1.011c-6.84,0-13.54,0.4-20.05,1.11c0.561-5.75,0.87-11.64,0.87-17.64c0-7.36-0.46-14.55-1.29-21.52
	c6.22,0.66,12.62,1.02,19.14,1.02c6.891,0,13.641-0.41,20.19-1.13c-0.65,6.17-1.01,12.51-1.01,18.98
	C500.471,237.83,500.881,244.579,501.601,251.13z M482.62,262.359c7.07,0,13.98,0.271,20.681,0.75c1.56,9.101,3.67,17.71,6.06,25.68
	c-8.5,4.181-18.06,6.53-28.17,6.53c-9.31,0-18.16-1.99-26.14-5.569c2.399-8.25,4.489-17.16,5.989-26.57
	C468.021,262.649,475.24,262.359,482.62,262.359z M514.601,264.119c6.899,0.75,13.52,1.69,19.79,2.761
	c-4.51,6.739-10.271,12.569-16.94,17.17C516.351,277.739,515.381,271.069,514.601,264.119z M534.521,196.089
	c-6.34,1.11-13.05,2.09-20.05,2.87c0.76-7.1,1.739-13.91,2.84-20.35C524.11,183.27,529.971,189.209,534.521,196.089z M481.19,167.43
	c10.02,0,19.5,2.31,27.94,6.42c-0.271,0.92-0.54,1.86-0.801,2.8c-0.239,0.83-0.47,1.67-0.699,2.52c-0.891,3.32-1.73,6.74-2.5,10.25
	c-0.15,0.68-0.301,1.37-0.44,2.06c-0.18,0.88-0.36,1.76-0.53,2.65c-0.16,0.78-0.31,1.56-0.45,2.35c-0.01,0.05-0.02,0.1-0.029,0.16
	c-0.101,0.56-0.2,1.12-0.3,1.68c-0.101,0.56-0.2,1.13-0.29,1.7c-7.051,0.53-14.341,0.83-21.801,0.83c-7.14,0-14.13-0.28-20.909-0.77
	c-0.21-1.18-0.431-2.35-0.66-3.51c-0.15-0.75-0.3-1.49-0.45-2.23c-0.37-1.78-0.76-3.54-1.17-5.27c-0.23-1.02-0.48-2.03-0.73-3.04
	c-0.56-2.26-1.149-4.48-1.76-6.66c-0.26-0.92-0.52-1.83-0.79-2.73c-0.31-1.04-0.62-2.07-0.939-3.1
	C462.16,169.62,471.421,167.43,481.19,167.43z M446.01,177.97c1.21,6.63,2.291,13.7,3.15,21.1c-7.45-0.8-14.58-1.84-21.29-3.01
	C432.641,188.879,438.811,182.709,446.01,177.97z M423.311,204.16c8.34,2.5,17.38,4.7,26.95,6.29c0.6,7.47,0.939,15.21,0.939,23.14
	c0,6.6-0.229,13.06-0.649,19.34c-9.55,1.64-18.57,3.88-26.88,6.41c-4.12-8.45-6.43-17.94-6.43-27.97
	C417.24,221.64,419.42,212.41,423.311,204.16z M362.831,233.04c0-17.85,3.94-34.77,11.01-49.95c7.27,4.17,21.89,11.86,41.15,18.41
	c-4.08,9.12-6.34,19.22-6.34,29.86c0,10.95,2.4,21.34,6.71,30.67c-20.83,7.19-36.1,15.641-42.27,19.311
	C366.49,266.59,362.831,250.239,362.831,233.04z M373.351,281.93c6.7-2.5,23.29-8.23,45.73-12.851
	c6.35,10.551,15.27,19.381,25.9,25.591c-4.32,21.79-9.8,38.39-12.67,46.319C406.22,329.1,385.19,308.05,373.351,281.93z
	 M505.311,349.17c-0.01,0.01-0.021,0.01-0.03,0.01c-7.57,0.899-15.27,1.37-23.08,1.37c-9.2,0-18.25-0.65-27.109-1.891
	c-7.591-1.72-14.9-4.159-21.86-7.27c4.23-7.32,12.35-22.66,19.11-42.95c9.06,4.01,19.08,6.24,29.63,6.24
	c10.83,0,21.12-2.351,30.38-6.58c7.18,20.84,15.63,36.13,19.31,42.33C523.36,344.329,514.53,347.289,505.311,349.17z
	 M532.261,340.149c-2.521-6.75-8.24-23.34-12.851-45.75c10.511-6.24,19.32-15.05,25.58-25.56c20.92,4.229,36.9,9.479,44.771,12.319
	C578.261,307.029,557.771,328.01,532.261,340.149z M590.181,280.189c-7.25-4.17-21.99-11.939-41.431-18.54
	c4.2-9.229,6.54-19.49,6.54-30.29c0-10.79-2.33-21.04-6.52-30.26c18.81-6.51,33.06-14.03,40.12-18.1
	c7.09,15.2,11.05,32.16,11.05,50.04C599.94,249.789,596.46,265.739,590.181,280.189z"/>
<path fill="#00FFFF" d="M511.35,438.28c-2.72-0.05-5.409-0.16-8.09-0.34l-0.04-0.11C505.91,438.06,508.62,438.21,511.35,438.28z"/>
<path fill="#00FFFF" d="M528.95,437.66l-0.03,0.109c-3.39,0.28-6.82,0.461-10.26,0.53C522.12,438.21,525.56,438,528.95,437.66z"/>
</svg>
