<?xml version="1.0" encoding="utf-8"?>
<!-- Generator: Adobe Illustrator 16.0.0, SVG Export Plug-In . SVG Version: 6.00 Build 0)  -->
<!DOCTYPE svg PUBLIC "-//W3C//DTD SVG 1.1//EN" "http://www.w3.org/Graphics/SVG/1.1/DTD/svg11.dtd">
<svg version="1.1" id="Layer_1" xmlns="http://www.w3.org/2000/svg" xmlns:xlink="http://www.w3.org/1999/xlink" x="0px" y="0px"
	 width="960px" height="560px" viewBox="0 0 960 560" enable-background="new 0 0 960 560" xml:space="preserve">
<g>
	<circle fill="#00FFFF" cx="514.954" cy="273.59" r="164.757"/>
	<circle fill="#FFFFFF" cx="516.515" cy="200.684" r="192.098"/>
	<circle fill="#00FFFF" cx="515.192" cy="301.22" r="137.125"/>
	<circle fill="#FFFFFF" cx="515.696" cy="275.269" r="118.552"/>
	<polygon fill="#00FFFF" points="497.407,417 516.063,483.803 534.716,417 	"/>
	<path fill="#00FFFF" d="M534.776,273.174c0-62.164,33.086-112.55,33.086-112.55s-20.843,50.388-20.843,112.55
		c0,62.159,20.843,112.551,20.843,112.551S534.776,335.333,534.776,273.174z"/>
	<path fill="#00FFFF" d="M497.751,275.819c0-62.164-33.085-112.549-33.085-112.549s20.841,50.387,20.841,112.549
		c0,62.16-20.841,112.552-20.841,112.552S497.751,337.979,497.751,275.819z"/>
	<path fill="#00FFFF" d="M515.604,255.322c-62.165,0-112.55-33.085-112.55-33.085s50.387,20.842,112.55,20.842
		c62.16,0,112.55-20.842,112.55-20.842S577.764,255.322,515.604,255.322z"/>
	<path fill="#00FFFF" d="M516.926,292.347c-62.164,0-112.549,33.087-112.549,33.087s50.387-20.843,112.549-20.843
		c62.16,0,112.549,20.843,112.549,20.843S579.086,292.347,516.926,292.347z"/>
	<path fill="none" stroke="#00FFFF" stroke-width="9" stroke-miterlimit="10" d="M516.28,200.267
		c40.492,0,73.319,32.828,73.319,73.323c0,40.494-32.827,73.322-73.319,73.322c-40.499,0-73.324-32.828-73.324-73.322
		C442.957,233.095,475.781,200.267,516.28,200.267z"/>
</g>
</svg>
